<svg id="Group_6" data-name="Group 6" xmlns="http://www.w3.org/2000/svg" viewBox="0 0 17.902 17.902">
  <defs>
    <style>
      .cls-1 {
        fill: #999;
      }
    </style>
  </defs>
  <g id="Group_4" data-name="Group 4">
    <path id="Path_23" data-name="Path 23" class="cls-1" d="M13.924,17.9H3.978A3.99,3.99,0,0,1,0,13.924V3.978A3.99,3.99,0,0,1,3.978,0h9.946A3.99,3.99,0,0,1,17.9,3.978v9.946A3.99,3.99,0,0,1,13.924,17.9ZM3.978,1.989A2,2,0,0,0,1.989,3.978v9.946a2,2,0,0,0,1.989,1.989h9.946a2,2,0,0,0,1.989-1.989V3.978a2,2,0,0,0-1.989-1.989Z"/>
  </g>
  <g id="Group_5" data-name="Group 5" transform="translate(4.227 4.227)">
    <path id="Path_24" data-name="Path 24" class="cls-1" d="M13.224,17.948a4.724,4.724,0,1,1,4.724-4.724A4.754,4.754,0,0,1,13.224,17.948Zm0-7.459a2.735,2.735,0,1,0,2.735,2.735A2.759,2.759,0,0,0,13.224,10.489Z" transform="translate(-8.5 -8.5)"/>
  </g>
</svg>
