<svg xmlns="http://www.w3.org/2000/svg" viewBox="0 0 17.66 17.66">
  <defs>
    <style>
      .cls-1 {
        fill: #999;
        fill-rule: evenodd;
      }
    </style>
  </defs>
  <path id="Path_20" data-name="Path 20" class="cls-1" d="M0,9.008V17.66H4.109V5.887H0Zm17.541.474c-.277-2.212-1.3-3.635-4.306-3.635-1.778,0-2.963.632-3.437,1.58h-.04V5.847H6.479V17.62H9.916V11.813c0-1.541.316-3,2.173-3,1.9,0,2.054,1.738,2.054,3.121V17.66H17.66V11.18a11.863,11.863,0,0,0-.119-1.7ZM2.054,0A2.04,2.04,0,0,0,0,2.054,2.04,2.04,0,0,0,2.054,4.109,2.04,2.04,0,0,0,4.109,2.054,2.04,2.04,0,0,0,2.054,0Z" transform="translate(17.66) rotate(90)"/>
</svg>
